<svg width="15" height="14" viewBox="0 0 15 14" fill="none" xmlns="http://www.w3.org/2000/svg">
<g clip-path="url(#clip0_47_339)">
<path d="M7.38599 4.78298L9.53323 6.78707L9.54345 6.6821C9.54345 5.62914 8.62663 4.77344 7.49846 4.77344L7.38599 4.78298Z" fill="black"/>
<path d="M7.49837 3.50069C9.37976 3.50069 10.9067 4.92583 10.9067 6.6818C10.9067 7.09216 10.8181 7.48343 10.6647 7.84289L12.6586 9.70383C13.6879 8.90219 14.4991 7.86517 15.0001 6.6818C13.8174 3.88881 10.9101 1.91016 7.4984 1.91016C6.54406 1.91016 5.63065 2.0692 4.78198 2.3555L6.25438 3.72654C6.63947 3.58658 7.0587 3.50069 7.49837 3.50069Z" fill="black"/>
<path d="M0.681653 1.76723L2.23584 3.21781L2.54601 3.5073C1.42127 4.32803 0.531697 5.41915 0 6.68203C1.17929 9.47502 4.08998 11.4537 7.49831 11.4537C8.55489 11.4537 9.56374 11.2628 10.4874 10.9161L10.7771 11.1865L12.7642 13.0442L13.6333 12.2362L1.55077 0.956055L0.681653 1.76723ZM4.45127 5.28235L5.50444 6.26531C5.47377 6.40211 5.45332 6.53888 5.45332 6.68203C5.45332 7.73498 6.37014 8.59068 7.49831 8.59068C7.65168 8.59068 7.79825 8.5716 7.9414 8.54297L8.99457 9.52592C8.54125 9.73588 8.03684 9.86313 7.49831 9.86313C5.61692 9.86313 4.08998 8.43799 4.08998 6.68203C4.08998 6.17942 4.22632 5.70861 4.45127 5.28235Z" fill="black"/>
</g>
<defs>
<clipPath id="clip0_47_339">
<rect width="15" height="14" fill="white"/>
</clipPath>
</defs>
</svg>
